<?xml version="1.0" encoding="UTF-8"?>
<svg id="Livello_1" data-name="Livello 1" xmlns="http://www.w3.org/2000/svg" viewBox="0 0 777.41 828.48">
  <defs>
    <style>
      .cls-1 {
        fill: #fff;
      }

      .cls-2 {
        stroke-width: 16px;
      }

      .cls-2, .cls-3, .cls-4 {
        fill: none;
        stroke: #fff;
        stroke-miterlimit: 10;
      }

      .cls-3 {
        stroke-width: 10px;
      }

      .cls-4 {
        stroke-width: 21px;
      }
    </style>
  </defs>
  <path class="cls-4" d="M560.75,569.49c-38.09,46.72-100.68,77.2-171.44,77.2s-133.64-30.62-171.71-77.53"/>
  <path class="cls-4" d="M366.74,442.64c11.57-13.5,19.35-31.04,21.42-50.51"/>
  <path class="cls-4" d="M410.85,442.82c-11.66-13.53-19.49-31.13-21.57-50.69"/>
  <path class="cls-4" d="M58,391.75c-13.26,19.63-21,43.29-21,68.77,0,67.93,55.06,122.99,122.99,122.99,22.12,0,42.85-5.87,60.79-16.09,17.61,20.27,43.55,33.11,72.51,33.11,53.03,0,96.03-42.99,96.03-96.03s-42.99-96.03-96.03-96.03c-7.15,0-14.11.81-20.82,2.29-2.89-6.53-6.34-12.76-10.27-18.63"/>
  <path class="cls-4" d="M719.71,391.73c13.27,19.63,21.02,43.31,21.02,68.79,0,67.93-55.06,122.99-122.99,122.99-22.12,0-42.85-5.87-60.79-16.09-17.61,20.27-43.55,33.11-72.51,33.11-53.03,0-96.03-42.99-96.03-96.03,0-53.03,42.99-96.03,96.03-96.03,7.15,0,14.11.81,20.82,2.29,2.89-6.53,6.34-12.76,10.27-18.63"/>
  <path class="cls-4" d="M79.28,288.95c23.92-125.36,123.17-225.38,248.14-250.44"/>
  <path class="cls-4" d="M449.99,38.51c124.97,25.06,224.22,125.08,248.14,250.44"/>
  <path class="cls-4" d="M307.65,288.95V91.55c0-44.76,36.29-81.05,81.05-81.05h0c24.48,0,46.43,10.85,61.29,28.01"/>
  <path class="cls-4" d="M449.99,38.51c12.31,14.22,19.76,32.76,19.76,53.04v197.39"/>
  <path class="cls-4" d="M469.76,288.95h243.15c29.82,0,54,23.1,54,51.59h0c0,28.49-24.18,51.59-54,51.59H64.5c-29.82,0-54-23.1-54-51.59h0c0-28.49,24.18-51.59,54-51.59h324.58"/>
  <line class="cls-4" x1="389.08" y1="288.95" x2="469.76" y2="288.95"/>
  <g>
    <path class="cls-2" d="M329.94,251.09c79.57,14.52,118.71-42.35,120.95-119.5-68.33-4.63-124.65,36.81-124.37,118.83,1.15.24,2.29.46,3.42.66Z"/>
    <path class="cls-3" d="M329.42,247.58c22.32-25.67,47.36-53.21,73.06-75.51"/>
  </g>
  <g>
    <path class="cls-1" d="M116.51,761.64c-5.04,0-8.97-1.53-11.78-4.59-2.81-3.06-4.92-7.77-6.32-14.14l-16.24-76.14h21.58l13.89,67.21c.08.33.21.5.37.5s.29-.17.37-.5l10.54-52.58c.99-5.04,2.81-9.05,5.46-12.03,2.64-2.98,6.24-4.46,10.79-4.46s8.27,1.49,10.91,4.46c2.64,2.98,4.46,6.99,5.46,12.03l10.54,51.71c.08.33.21.5.37.5s.29-.17.37-.5l13.52-66.34h20.83l-16.12,76.14c-1.32,6.37-3.41,11.08-6.26,14.14-2.85,3.06-6.8,4.59-11.84,4.59-5.37,0-9.38-1.61-12.03-4.84-2.65-3.22-4.59-7.81-5.83-13.76l-9.92-48.73c-.08-.33-.21-.5-.37-.5s-.29.17-.37.5l-10.04,48.73c-1.24,5.95-3.18,10.54-5.83,13.76-2.65,3.22-6.66,4.84-12.03,4.84Z"/>
    <path class="cls-1" d="M244.36,761.64c-7.19,0-13.43-1.51-18.72-4.53-5.29-3.02-9.4-7.32-12.34-12.9-2.94-5.58-4.4-12.17-4.4-19.78s1.45-14.18,4.34-19.72c2.89-5.54,6.96-9.84,12.21-12.9,5.25-3.06,11.43-4.59,18.54-4.59s13.62,1.65,18.79,4.96c5.17,3.31,9.05,8.1,11.66,14.38,2.6,6.28,3.7,13.85,3.29,22.69h-48.61c.66,5.29,2.4,9.42,5.21,12.4,2.81,2.98,6.45,4.46,10.91,4.46,3.64,0,6.61-.89,8.93-2.67,2.31-1.78,3.76-3.95,4.34-6.51h18.72c-.83,5.13-2.75,9.53-5.77,13.21-3.02,3.68-6.84,6.51-11.47,8.49-4.63,1.98-9.84,2.98-15.62,2.98ZM244.11,702.62c-4.05,0-7.4,1.3-10.04,3.91-2.65,2.6-4.3,6.1-4.96,10.48h28.77c-.33-5.21-1.86-8.91-4.59-11.1-2.73-2.19-5.79-3.29-9.18-3.29Z"/>
    <path class="cls-1" d="M298.05,681.41c-3.22,0-5.93-.95-8.12-2.85-2.19-1.9-3.29-4.38-3.29-7.44s1.09-5.41,3.29-7.32c2.19-1.9,4.9-2.85,8.12-2.85s5.81.95,8,2.85c2.19,1.9,3.29,4.34,3.29,7.32s-1.1,5.54-3.29,7.44c-2.19,1.9-4.86,2.85-8,2.85ZM288.01,759.78v-70.68h20.09v70.68h-20.09Z"/>
    <path class="cls-1" d="M347.4,753.95c-5.38,0-10.23-1.36-14.57-4.09-4.34-2.73-7.79-6.59-10.35-11.59-2.56-5-3.84-10.89-3.84-17.67s1.32-12.42,3.97-17.42c2.65-5,6.24-8.91,10.79-11.72,4.55-2.81,9.63-4.22,15.25-4.22,4.13,0,7.79.83,10.97,2.48,3.18,1.65,5.89,3.93,8.12,6.82l.87-7.44h17.73v64.23c0,5.95-1.45,11.24-4.34,15.87-2.89,4.63-6.92,8.25-12.09,10.85-5.17,2.6-11.26,3.91-18.29,3.91-5.38,0-10.38-1.08-15-3.22-4.63-2.15-8.37-5.17-11.22-9.05-2.85-3.89-4.36-8.39-4.53-13.52h17.48c.99,3.39,2.56,5.85,4.71,7.38,2.15,1.53,5,2.29,8.56,2.29,4.38,0,7.94-1.26,10.66-3.78,2.73-2.52,4.09-6.1,4.09-10.73v-8.68c-1.82,2.73-4.26,4.96-7.32,6.7-3.06,1.74-6.94,2.6-11.66,2.6ZM352.36,738.2c4.38,0,7.81-1.51,10.29-4.53,2.48-3.02,3.72-7.01,3.72-11.97s-1.24-8.97-3.72-12.28c-2.48-3.31-5.91-4.96-10.29-4.96s-7.59,1.61-9.86,4.84c-2.27,3.22-3.41,7.36-3.41,12.4s1.12,8.95,3.35,11.97c2.23,3.02,5.54,4.53,9.92,4.53Z"/>
    <path class="cls-1" d="M432.22,761.64c-7.19,0-13.43-1.51-18.72-4.53-5.29-3.02-9.4-7.32-12.34-12.9-2.94-5.58-4.4-12.17-4.4-19.78s1.45-14.18,4.34-19.72c2.89-5.54,6.96-9.84,12.21-12.9,5.25-3.06,11.43-4.59,18.54-4.59s13.62,1.65,18.79,4.96c5.17,3.31,9.05,8.1,11.66,14.38,2.6,6.28,3.7,13.85,3.29,22.69h-48.61c.66,5.29,2.4,9.42,5.21,12.4,2.81,2.98,6.45,4.46,10.91,4.46,3.64,0,6.61-.89,8.93-2.67,2.31-1.78,3.76-3.95,4.34-6.51h18.72c-.83,5.13-2.75,9.53-5.77,13.21-3.02,3.68-6.84,6.51-11.47,8.49-4.63,1.98-9.84,2.98-15.62,2.98ZM431.97,702.62c-4.05,0-7.4,1.3-10.04,3.91-2.65,2.6-4.3,6.1-4.96,10.48h28.77c-.33-5.21-1.86-8.91-4.59-11.1-2.73-2.19-5.79-3.29-9.18-3.29Z"/>
    <path class="cls-1" d="M475.62,759.78v-41.54c0-6.36,1.3-11.86,3.91-16.49,2.6-4.63,6.3-8.2,11.1-10.73,4.79-2.52,10.46-3.78,16.99-3.78s12.19,1.26,16.99,3.78c4.79,2.52,8.49,6.1,11.1,10.73,2.6,4.63,3.91,10.13,3.91,16.49v41.54h-20.09v-41.29c0-4.46-1.1-7.89-3.29-10.29-2.19-2.4-5.06-3.6-8.62-3.6s-6.32,1.2-8.56,3.6c-2.23,2.4-3.35,5.83-3.35,10.29v41.29h-20.09Z"/>
    <path class="cls-1" d="M583.99,761.64c-6.86,0-12.86-1.57-17.98-4.71-5.13-3.14-9.09-7.5-11.9-13.08-2.81-5.58-4.22-11.97-4.22-19.16s1.41-13.72,4.22-19.34c2.81-5.62,6.82-10.04,12.03-13.27s11.45-4.84,18.72-4.84c6.12,0,11.43,1.16,15.93,3.47,4.5,2.32,8.02,5.62,10.54,9.92,2.52,4.3,3.78,9.42,3.78,15.38h-19.22c0-3.39-1.03-6.14-3.1-8.25-2.07-2.11-4.79-3.16-8.18-3.16-4.3,0-7.75,1.8-10.35,5.39-2.6,3.6-3.91,8.45-3.91,14.57s1.28,10.83,3.84,14.38c2.56,3.56,6.03,5.33,10.42,5.33,3.47,0,6.39-1.05,8.74-3.16,2.36-2.11,3.53-4.69,3.53-7.75h19.22c0,3.22-.7,6.51-2.11,9.86-1.41,3.35-3.47,6.41-6.2,9.18-2.73,2.77-6.1,5-10.11,6.7-4.01,1.69-8.58,2.54-13.7,2.54Z"/>
    <path class="cls-1" d="M657.52,761.64c-7.19,0-13.43-1.51-18.72-4.53-5.29-3.02-9.4-7.32-12.34-12.9-2.94-5.58-4.4-12.17-4.4-19.78s1.45-14.18,4.34-19.72c2.89-5.54,6.96-9.84,12.21-12.9,5.25-3.06,11.43-4.59,18.54-4.59s13.62,1.65,18.79,4.96c5.17,3.31,9.05,8.1,11.66,14.38,2.6,6.28,3.7,13.85,3.29,22.69h-48.61c.66,5.29,2.4,9.42,5.21,12.4,2.81,2.98,6.45,4.46,10.91,4.46,3.64,0,6.61-.89,8.93-2.67,2.31-1.78,3.76-3.95,4.34-6.51h18.72c-.83,5.13-2.75,9.53-5.77,13.21-3.02,3.68-6.84,6.51-11.47,8.49-4.63,1.98-9.84,2.98-15.62,2.98ZM657.27,702.62c-4.05,0-7.4,1.3-10.04,3.91-2.65,2.6-4.3,6.1-4.96,10.48h28.77c-.33-5.21-1.86-8.91-4.59-11.1-2.73-2.19-5.79-3.29-9.18-3.29Z"/>
  </g>
</svg>