<?xml version="1.0" encoding="UTF-8"?>
<svg id="Livello_1" data-name="Livello 1" xmlns="http://www.w3.org/2000/svg" viewBox="0 0 1024.24 1024.24">
  <defs>
    <style>
      .cls-1 {
        fill: #fff;
      }

      .cls-2, .cls-3 {
        fill: none;
      }

      .cls-3 {
        stroke: #fff;
        stroke-miterlimit: 10;
        stroke-width: 21px;
      }
    </style>
  </defs>
  <rect class="cls-2" width="1024.24" height="1024.24"/>
  <path class="cls-3" d="M683.75,597.81c-42,47.07-103,76.89-170.42,76.89s-128.7-29.96-170.7-77.22"/>
  <path class="cls-3" d="M512.52,411.18c0-17.51-4.5-33.74-12.16-47.12,7.9-14.74,12.39-31.58,12.39-49.47,0-57.93-46.96-104.9-104.9-104.9-39.1,0-73.18,21.41-91.23,53.14-66.6,6.79-118.57,63.04-118.57,131.44,0,3,.11,5.97.31,8.91-22.05,22.17-35.68,52.71-35.68,86.45,0,67.7,54.88,122.59,122.59,122.59,21.89,0,42.42-5.77,60.21-15.82,17.51,19.88,43.14,32.44,71.72,32.44,52.77,0,95.56-42.78,95.56-95.56,0-23.32-8.36-44.68-22.24-61.27,13.53-15.14,22.01-36.78,22.01-60.84Z"/>
  <path class="cls-3" d="M512.97,411.16c0-17.51,4.5-33.74,12.16-47.12-7.9-14.74-12.39-31.58-12.39-49.47,0-57.93,46.96-104.9,104.9-104.9,39.1,0,73.18,21.41,91.23,53.14,66.6,6.79,118.57,63.04,118.57,131.44,0,3-.11,5.97-.31,8.91,22.05,22.17,35.68,52.71,35.68,86.45,0,67.7-54.88,122.59-122.59,122.59-21.89,0-42.42-5.77-60.21-15.82-17.51,19.88-43.14,32.44-71.72,32.44-52.77,0-95.56-42.78-95.56-95.56,0-23.32,8.36-44.68,22.24-61.27-13.53-15.14-22.01-36.78-22.01-60.84Z"/>
  <path class="cls-3" d="M491.09,471.41c13.43-15.79,21.65-37.07,21.65-60.47,0-46.17-32.03-84.03-72.8-87.86-23.26-36.63-64.17-60.93-110.77-60.93-72.42,0-131.12,58.71-131.12,131.12,0,2.91.1,5.81.28,8.67"/>
  <path class="cls-3" d="M534.67,471.73c-13.59-15.82-21.93-37.23-21.93-60.8,0-46.17,32.03-84.03,72.8-87.86,23.26-36.63,64.17-60.93,110.77-60.93,72.42,0,131.12,58.71,131.12,131.12,0,3.05-.1,6.08-.31,9.08"/>
  <g>
    <path class="cls-3" d="M417.76,437.66c-7.12,0-14.05.8-20.72,2.28-19.02-42.93-61.97-72.9-111.95-72.9-67.61,0-122.42,54.81-122.42,122.42s54.81,122.42,122.42,122.42c22.01,0,42.65-5.84,60.5-16.01,17.52,20.18,43.35,32.96,72.17,32.96,52.79,0,95.58-42.79,95.58-95.58s-42.79-95.58-95.58-95.58Z"/>
    <path class="cls-3" d="M608.02,437.66c7.12,0,14.05.8,20.72,2.28,19.02-42.93,61.97-72.9,111.95-72.9,67.61,0,122.42,54.81,122.42,122.42,0,67.61-54.81,122.42-122.42,122.42-22.01,0-42.65-5.84-60.5-16.01-17.52,20.18-43.35,32.96-72.17,32.96-52.79,0-95.58-42.79-95.58-95.58,0-52.79,42.79-95.58,95.58-95.58Z"/>
  </g>
  <g>
    <path class="cls-1" d="M241.15,789.71c-5.04,0-8.97-1.53-11.78-4.59-2.81-3.06-4.92-7.77-6.32-14.14l-16.24-76.14h21.58l13.89,67.21c.08.33.21.5.37.5s.29-.17.37-.5l10.54-52.58c.99-5.04,2.81-9.05,5.46-12.03,2.64-2.98,6.24-4.46,10.79-4.46s8.27,1.49,10.91,4.46c2.64,2.98,4.46,6.99,5.46,12.03l10.54,51.71c.08.33.21.5.37.5s.29-.17.37-.5l13.52-66.34h20.83l-16.12,76.14c-1.32,6.37-3.41,11.08-6.26,14.14-2.85,3.06-6.8,4.59-11.84,4.59-5.37,0-9.38-1.61-12.03-4.84-2.65-3.22-4.59-7.81-5.83-13.76l-9.92-48.73c-.08-.33-.21-.5-.37-.5s-.29.17-.37.5l-10.04,48.73c-1.24,5.95-3.18,10.54-5.83,13.76-2.65,3.22-6.66,4.84-12.03,4.84Z"/>
    <path class="cls-1" d="M368.99,789.71c-7.19,0-13.43-1.51-18.72-4.53-5.29-3.02-9.4-7.32-12.34-12.9-2.94-5.58-4.4-12.17-4.4-19.78s1.45-14.18,4.34-19.72c2.89-5.54,6.96-9.84,12.21-12.9,5.25-3.06,11.43-4.59,18.54-4.59s13.62,1.65,18.79,4.96c5.17,3.31,9.05,8.1,11.66,14.38,2.6,6.28,3.7,13.85,3.29,22.69h-48.61c.66,5.29,2.4,9.42,5.21,12.4,2.81,2.98,6.45,4.46,10.91,4.46,3.64,0,6.61-.89,8.93-2.67,2.31-1.78,3.76-3.95,4.34-6.51h18.72c-.83,5.13-2.75,9.53-5.77,13.21-3.02,3.68-6.84,6.51-11.47,8.49-4.63,1.98-9.84,2.98-15.62,2.98ZM368.74,730.69c-4.05,0-7.4,1.3-10.04,3.91-2.65,2.6-4.3,6.1-4.96,10.48h28.77c-.33-5.21-1.86-8.91-4.59-11.1-2.73-2.19-5.79-3.29-9.18-3.29Z"/>
    <path class="cls-1" d="M422.68,709.48c-3.22,0-5.93-.95-8.12-2.85-2.19-1.9-3.29-4.38-3.29-7.44s1.09-5.41,3.29-7.32c2.19-1.9,4.9-2.85,8.12-2.85s5.81.95,8,2.85c2.19,1.9,3.29,4.34,3.29,7.32s-1.1,5.54-3.29,7.44c-2.19,1.9-4.86,2.85-8,2.85ZM412.64,787.85v-70.68h20.09v70.68h-20.09Z"/>
    <path class="cls-1" d="M472.03,782.02c-5.38,0-10.23-1.36-14.57-4.09-4.34-2.73-7.79-6.59-10.35-11.59-2.56-5-3.84-10.89-3.84-17.67s1.32-12.42,3.97-17.42c2.65-5,6.24-8.91,10.79-11.72,4.55-2.81,9.63-4.22,15.25-4.22,4.13,0,7.79.83,10.97,2.48,3.18,1.65,5.89,3.93,8.12,6.82l.87-7.44h17.73v64.23c0,5.95-1.45,11.24-4.34,15.87-2.89,4.63-6.92,8.25-12.09,10.85-5.17,2.6-11.26,3.91-18.29,3.91-5.38,0-10.38-1.08-15-3.22-4.63-2.15-8.37-5.17-11.22-9.05-2.85-3.89-4.36-8.39-4.53-13.52h17.48c.99,3.39,2.56,5.85,4.71,7.38,2.15,1.53,5,2.29,8.56,2.29,4.38,0,7.94-1.26,10.66-3.78,2.73-2.52,4.09-6.1,4.09-10.73v-8.68c-1.82,2.73-4.26,4.96-7.32,6.7-3.06,1.74-6.94,2.6-11.66,2.6ZM476.99,766.28c4.38,0,7.81-1.51,10.29-4.53,2.48-3.02,3.72-7.01,3.72-11.97s-1.24-8.97-3.72-12.28c-2.48-3.31-5.91-4.96-10.29-4.96s-7.59,1.61-9.86,4.84c-2.27,3.22-3.41,7.36-3.41,12.4s1.12,8.95,3.35,11.97c2.23,3.02,5.54,4.53,9.92,4.53Z"/>
    <path class="cls-1" d="M556.85,789.71c-7.19,0-13.43-1.51-18.72-4.53-5.29-3.02-9.4-7.32-12.34-12.9-2.94-5.58-4.4-12.17-4.4-19.78s1.45-14.18,4.34-19.72c2.89-5.54,6.96-9.84,12.21-12.9,5.25-3.06,11.43-4.59,18.54-4.59s13.62,1.65,18.79,4.96c5.17,3.31,9.05,8.1,11.66,14.38,2.6,6.28,3.7,13.85,3.29,22.69h-48.61c.66,5.29,2.4,9.42,5.21,12.4,2.81,2.98,6.45,4.46,10.91,4.46,3.64,0,6.61-.89,8.93-2.67,2.31-1.78,3.76-3.95,4.34-6.51h18.72c-.83,5.13-2.75,9.53-5.77,13.21-3.02,3.68-6.84,6.51-11.47,8.49-4.63,1.98-9.84,2.98-15.62,2.98ZM556.6,730.69c-4.05,0-7.4,1.3-10.04,3.91-2.65,2.6-4.3,6.1-4.96,10.48h28.77c-.33-5.21-1.86-8.91-4.59-11.1-2.73-2.19-5.79-3.29-9.18-3.29Z"/>
    <path class="cls-1" d="M600.25,787.85v-41.54c0-6.36,1.3-11.86,3.91-16.49,2.6-4.63,6.3-8.2,11.1-10.73,4.79-2.52,10.46-3.78,16.99-3.78s12.19,1.26,16.99,3.78c4.79,2.52,8.49,6.1,11.1,10.73,2.6,4.63,3.91,10.13,3.91,16.49v41.54h-20.09v-41.29c0-4.46-1.1-7.89-3.29-10.29-2.19-2.4-5.06-3.6-8.62-3.6s-6.32,1.2-8.56,3.6c-2.23,2.4-3.35,5.83-3.35,10.29v41.29h-20.09Z"/>
    <path class="cls-1" d="M708.62,789.71c-6.86,0-12.86-1.57-17.98-4.71-5.13-3.14-9.09-7.5-11.9-13.08-2.81-5.58-4.22-11.97-4.22-19.16s1.41-13.72,4.22-19.34c2.81-5.62,6.82-10.04,12.03-13.27s11.45-4.84,18.72-4.84c6.12,0,11.43,1.16,15.93,3.47,4.5,2.32,8.02,5.62,10.54,9.92,2.52,4.3,3.78,9.42,3.78,15.38h-19.22c0-3.39-1.03-6.14-3.1-8.25-2.07-2.11-4.79-3.16-8.18-3.16-4.3,0-7.75,1.8-10.35,5.39-2.6,3.6-3.91,8.45-3.91,14.57s1.28,10.83,3.84,14.38c2.56,3.56,6.03,5.33,10.42,5.33,3.47,0,6.39-1.05,8.74-3.16,2.36-2.11,3.53-4.69,3.53-7.75h19.22c0,3.22-.7,6.51-2.11,9.86-1.41,3.35-3.47,6.41-6.2,9.18-2.73,2.77-6.1,5-10.11,6.7-4.01,1.69-8.58,2.54-13.7,2.54Z"/>
    <path class="cls-1" d="M782.16,789.71c-7.19,0-13.43-1.51-18.72-4.53-5.29-3.02-9.4-7.32-12.34-12.9-2.94-5.58-4.4-12.17-4.4-19.78s1.45-14.18,4.34-19.72c2.89-5.54,6.96-9.84,12.21-12.9,5.25-3.06,11.43-4.59,18.54-4.59s13.62,1.65,18.79,4.96c5.17,3.31,9.05,8.1,11.66,14.38,2.6,6.28,3.7,13.85,3.29,22.69h-48.61c.66,5.29,2.4,9.42,5.21,12.4,2.81,2.98,6.45,4.46,10.91,4.46,3.64,0,6.61-.89,8.93-2.67,2.31-1.78,3.76-3.95,4.34-6.51h18.72c-.83,5.13-2.75,9.53-5.77,13.21-3.02,3.68-6.84,6.51-11.47,8.49-4.63,1.98-9.84,2.98-15.62,2.98ZM781.91,730.69c-4.05,0-7.4,1.3-10.04,3.91-2.65,2.6-4.3,6.1-4.96,10.48h28.77c-.33-5.21-1.86-8.91-4.59-11.1-2.73-2.19-5.79-3.29-9.18-3.29Z"/>
  </g>
</svg>